<svg width="249" height="247" viewBox="0 0 249 247" fill="none" xmlns="http://www.w3.org/2000/svg">
<path fill-rule="evenodd" clip-rule="evenodd" d="M183.673 107.147C180.001 79.1739 139.948 51.3666 101.564 66.4289C67.1855 79.6705 53.6676 118.733 68.5206 150.678C84.0411 183.948 127.599 194.045 156.47 176.169C159.474 174.348 164.147 171.203 165.983 169.382C179.5 156.141 193.352 167.561 195.021 177.162C198.359 197.19 157.138 213.907 138.446 216.721C127.265 218.376 118.086 215.728 112.412 223.673C106.571 231.949 110.91 242.376 118.253 245.687C124.261 248.335 139.114 246.349 146.123 245.19C163.98 242.211 179.5 235.259 192.518 226.983C235.241 199.672 258.104 146.375 245.588 94.5673C228.899 25.5455 156.637 -15.5034 87.3788 5.51765C37.8134 20.4144 4.60287 64.1116 0.263813 112.609C-2.90704 147.037 23.4611 141.078 28.1339 128.168C30.4704 120.885 26.632 73.0497 72.6928 44.2493C111.411 19.9179 161.81 26.2076 192.351 57.1598C196.356 61.2978 202.364 69.0772 206.035 75.0359C213.879 88.112 221.055 107.643 219.22 125.685C217.384 144.72 197.524 140.085 169.153 139.92C158.64 139.92 111.244 141.409 105.736 138.596C91.551 131.313 92.5523 114.926 104.902 108.636C111.911 105.492 173.159 106.981 183.673 107.147Z" fill="#78599C"/>
</svg>
